<?xml version="1.0" encoding="UTF-8" standalone="no"?>
<svg xmlns:rdf="http://www.w3.org/1999/02/22-rdf-syntax-ns#" xmlns="http://www.w3.org/2000/svg" height="662.74" width="1843" version="1.1" xmlns:cc="http://creativecommons.org/ns#" xmlns:dc="http://purl.org/dc/elements/1.1/">
 <g transform="translate(-344.74 1038.4)">
  <g transform="matrix(6.9786 0 0 6.9786 65.596 -1289.8)">
   <text style="font-size:113.18px;font-family:Dinova;letter-spacing:0px;word-spacing:0px;font-weight:900;line-height:125%;fill:#f2f2f2" y="130.11212" x="37.057396" xml:space="preserve"><tspan y="130.11212" x="37.057396">m</tspan></text>
   <text style="font-size:113.18px;font-family:Dinova;letter-spacing:0px;word-spacing:0px;font-weight:900;line-height:125%;fill:#f2f2f2" y="130.20612" x="131.23686" xml:space="preserve"><tspan y="130.20612" x="131.23686">d</tspan></text>
   <text style="font-size:113.18px;font-family:Dinova;letter-spacing:0px;word-spacing:0px;font-weight:900;line-height:125%;fill:#f2f2f2" y="130.22533" x="194.29263" xml:space="preserve"><tspan y="130.22533" x="194.29263">r</tspan></text>
   <path style="fill:#f2f2f2" d="m283.56 36.031-32.25 8.0938c0 13.909 2.5 23.947 5.7812 35.062 3.0411-0.77216 6.2092-1.1875 9.5-1.1875 3.8048 0 7.4772 0.5407 10.938 1.5625 4.1836-13.745 6.9557-28.778 6.0312-43.531zm-6.0312 43.531c-2.0517 6.7409-4.4155 13.178-6.9062 19.094 0 0-1.8576-0.47436-3.9688-0.46875-2.4154 0.007-3.9062 0.46875-3.9062 0.46875-1.9604-7.3284-3.9063-13.541-5.6562-19.469-16.099 4.0875-28 18.292-28 35.188 0 5.6496 1.3489 10.98 3.7188 15.75h67.594c2.3698-4.7701 3.6875-10.1 3.6875-15.75 0-16.397-11.187-30.272-26.562-34.812zm-10.875 19.812c4.1453 0.00003 7.6661 1.4489 10.531 4.375 2.9261 2.9262 4.3749 6.4797 4.375 10.625-0.00007 4.1453-1.4489 7.6676-4.375 10.594-2.8652 2.9261-6.386 4.4062-10.531 4.4062-4.1454 0-7.6989-1.4801-10.625-4.4062s-4.375-6.4484-4.375-10.594c-0.00001-4.1453 1.4489-7.6988 4.375-10.625 2.9261-2.9261 6.4796-4.375 10.625-4.375z"/>
  </g>
 </g>
</svg>
